# xmcd
#
# Track frame offsets:
#	150
#	13214
#	41989
#	70759
#	97909
#
# Disc length: 1882 seconds
#
# Revision: 0
# Processed by: cddbd v1.5.1PL0 Copyright (c) Steve Scherf et al.
# Submitted via: EasyCDDAExtractor 4.6.9.1
#
DISCID=3c075805
DTITLE=Crazy Frog - AXEL F
DYEAR=2005
DGENRE=Dance
TTITLE0=radio mix
TTITLE1=club mix
TTITLE2=club mix instrumental
TTITLE3=in the 80's
TTITLE4=video
EXTD=
EXTT0=
EXTT1=
EXTT2=
EXTT3=
EXTT4=
PLAYORDER=
